<svg width="273" height="586" fill="none" xmlns="http://www.w3.org/2000/svg">
  <path d="M192.506 535.685c-2.967 0-5.373-2.392-5.373-5.343 0-2.95 2.406-5.342 5.373-5.342s5.372 2.392 5.372 5.342c0 2.942-2.405 5.343-5.372 5.343zm-3.707-1.481L185 537.973m-3.096-382.968l-5.652 5.621m5.652 0l-5.652-5.621M76.652 481L71 486.621m5.652 0L71 481M9.439 159.619H1.446m3.997 3.984v-7.958m135.923-103.34c-2.677 0-4.858-2.16-4.858-4.831 0-2.662 2.172-4.83 4.858-4.83 2.677 0 4.858 2.159 4.858 4.83a4.852 4.852 0 01-4.858 4.83zm125.776 284.272c-2.677 0-4.857-2.16-4.857-4.831 0-2.662 2.171-4.831 4.857-4.831 2.677 0 4.858 2.16 4.858 4.831a4.852 4.852 0 01-4.858 4.831zM11.857 407.441c-2.676 0-4.857-2.159-4.857-4.83 0-2.662 2.171-4.831 4.857-4.831 2.677 0 4.858 2.16 4.858 4.831a4.852 4.852 0 01-4.857 4.83z" stroke="#04D361" stroke-width="2" stroke-miterlimit="10" stroke-linecap="round" stroke-linejoin="round"/>
  <path d="M74.35 1.75c0 .966.788 1.75 1.76 1.75.971 0 1.759-.784 1.759-1.75S77.08 0 76.109 0 74.35.784 74.35 1.75zm0 12.22c0 .967.788 1.75 1.76 1.75.971 0 1.759-.783 1.759-1.75 0-.966-.788-1.75-1.76-1.75-.971 0-1.759.784-1.759 1.75zm0 12.21c0 .966.788 1.75 1.76 1.75.971 0 1.759-.784 1.759-1.75s-.788-1.75-1.76-1.75c-.971 0-1.759.784-1.759 1.75zm0 12.22c0 .966.788 1.75 1.76 1.75.971 0 1.759-.784 1.759-1.75s-.788-1.75-1.76-1.75c-.971 0-1.759.784-1.759 1.75zm0 12.21c0 .967.788 1.75 1.76 1.75.971 0 1.759-.783 1.759-1.75 0-.965-.788-1.749-1.76-1.749-.971 0-1.759.784-1.759 1.75zm0 12.22c0 .967.788 1.75 1.76 1.75.971 0 1.759-.783 1.759-1.75 0-.966-.788-1.749-1.76-1.749-.971 0-1.759.783-1.759 1.75zM62.07 1.75c0 .966.788 1.749 1.76 1.749.971 0 1.759-.783 1.759-1.75C65.589.784 64.8 0 63.829 0S62.07.783 62.07 1.75zm0 12.22c0 .966.788 1.75 1.76 1.75.971 0 1.759-.784 1.759-1.75s-.788-1.75-1.76-1.75c-.971 0-1.759.784-1.759 1.75zm0 12.21c0 .966.788 1.75 1.76 1.75.971 0 1.759-.784 1.759-1.75s-.788-1.75-1.76-1.75c-.971 0-1.759.784-1.759 1.75zm0 12.22c0 .967.788 1.75 1.76 1.75.971 0 1.759-.783 1.759-1.75 0-.966-.788-1.75-1.76-1.75-.971 0-1.759.784-1.759 1.75zm0 12.21c0 .967.788 1.75 1.76 1.75.971 0 1.759-.783 1.759-1.75 0-.965-.788-1.749-1.76-1.749-.971 0-1.759.784-1.759 1.75zm0 12.22c0 .967.788 1.75 1.76 1.75.971 0 1.759-.783 1.759-1.75 0-.966-.788-1.749-1.76-1.749-.971 0-1.759.783-1.759 1.75zM49.78 1.75c0 .966.789 1.749 1.76 1.749.972 0 1.76-.783 1.76-1.75C53.3.784 52.512 0 51.54 0c-.971 0-1.76.783-1.76 1.75zm0 12.22c0 .966.789 1.75 1.76 1.75.972 0 1.76-.784 1.76-1.75s-.788-1.75-1.76-1.75c-.971 0-1.76.784-1.76 1.75zm0 12.21c0 .966.789 1.75 1.76 1.75.972 0 1.76-.784 1.76-1.75s-.788-1.75-1.76-1.75c-.971 0-1.76.784-1.76 1.75zm0 12.22c0 .967.789 1.75 1.76 1.75.972 0 1.76-.783 1.76-1.75 0-.966-.788-1.75-1.76-1.75-.971 0-1.76.784-1.76 1.75zm0 12.21c0 .967.789 1.75 1.76 1.75.972 0 1.76-.783 1.76-1.75 0-.965-.788-1.749-1.76-1.749-.971 0-1.76.784-1.76 1.75zm0 12.22c0 .967.789 1.75 1.76 1.75.972 0 1.76-.783 1.76-1.75 0-.966-.788-1.749-1.76-1.749-.971 0-1.76.783-1.76 1.75zM37.501 1.75c0 .966.788 1.749 1.76 1.749.971 0 1.759-.783 1.759-1.75C41.02.784 40.232 0 39.26 0c-.971 0-1.759.783-1.759 1.75zm0 12.22c0 .966.788 1.75 1.76 1.75.971 0 1.759-.784 1.759-1.75s-.788-1.75-1.76-1.75c-.971 0-1.759.784-1.759 1.75zm0 12.21c0 .966.788 1.75 1.76 1.75.971 0 1.759-.784 1.759-1.75s-.788-1.75-1.76-1.75c-.971 0-1.759.784-1.759 1.75zm0 12.22c0 .967.788 1.75 1.76 1.75.971 0 1.759-.783 1.759-1.75 0-.966-.788-1.75-1.76-1.75-.971 0-1.759.784-1.759 1.75zm0 12.21c0 .967.788 1.75 1.76 1.75.971 0 1.759-.783 1.759-1.75 0-.965-.788-1.749-1.76-1.749-.971 0-1.759.784-1.759 1.75zm0 12.22c0 .967.788 1.75 1.76 1.75.971 0 1.759-.783 1.759-1.75 0-.966-.788-1.749-1.76-1.749-.971 0-1.759.783-1.759 1.75zM196.91 404.826c0 .966.787 1.75 1.759 1.75.972 0 1.759-.784 1.759-1.75s-.787-1.749-1.759-1.749c-.972 0-1.759.783-1.759 1.749zm0 12.212c0 .966.788 1.749 1.759 1.749.972 0 1.76-.783 1.76-1.749 0-.967-.788-1.75-1.76-1.75-.971 0-1.759.783-1.759 1.75zm0 12.218c0 .966.788 1.749 1.759 1.749.972 0 1.76-.783 1.76-1.749 0-.966-.788-1.75-1.76-1.75-.971 0-1.759.784-1.759 1.75zm-12.289-24.43c0 .966.787 1.749 1.759 1.749.972 0 1.759-.783 1.759-1.749 0-.967-.787-1.75-1.759-1.75-.972 0-1.759.783-1.759 1.75zm0 12.212c0 .966.787 1.749 1.759 1.749.972 0 1.759-.783 1.759-1.749 0-.967-.787-1.75-1.759-1.75-.972 0-1.759.783-1.759 1.75zm0 12.218c0 .966.787 1.749 1.759 1.749.972 0 1.759-.783 1.759-1.749 0-.966-.787-1.75-1.759-1.75-.972 0-1.759.784-1.759 1.75zm66.022-282.179c0 .966.788 1.749 1.759 1.749.972 0 1.759-.783 1.759-1.749 0-.967-.787-1.75-1.759-1.75-.971 0-1.759.783-1.759 1.75zm0 12.21c0 .966.788 1.749 1.759 1.749.972 0 1.76-.783 1.76-1.749 0-.966-.788-1.75-1.76-1.75-.971 0-1.759.784-1.759 1.75zm0 12.22c0 .966.788 1.749 1.759 1.749.972 0 1.76-.783 1.76-1.749 0-.967-.788-1.75-1.76-1.75-.971 0-1.759.783-1.759 1.75zm-12.289-24.43c0 .966.787 1.749 1.759 1.749.972 0 1.759-.783 1.759-1.749 0-.967-.787-1.75-1.759-1.75-.972 0-1.759.783-1.759 1.75zm0 12.21c0 .966.787 1.749 1.759 1.749.972 0 1.759-.783 1.759-1.749 0-.966-.787-1.75-1.759-1.75-.972 0-1.759.784-1.759 1.75zm0 12.22c0 .966.787 1.75 1.759 1.75.972 0 1.759-.784 1.759-1.75s-.787-1.749-1.759-1.749c-.972 0-1.759.783-1.759 1.749zM74.35 584.25c0 .966.788 1.75 1.76 1.75.971 0 1.759-.784 1.759-1.75s-.788-1.749-1.76-1.749c-.971 0-1.759.783-1.759 1.749zm-12.29.001c0 .966.788 1.749 1.76 1.749s1.76-.783 1.76-1.749c0-.967-.788-1.75-1.76-1.75s-1.76.783-1.76 1.75zm-12.28 0c0 .966.788 1.749 1.76 1.749s1.76-.783 1.76-1.749c0-.967-.788-1.75-1.76-1.75-.971 0-1.76.783-1.76 1.75zm-12.288 0c0 .966.787 1.749 1.759 1.749.971 0 1.76-.783 1.76-1.749 0-.967-.789-1.75-1.76-1.75-.972 0-1.76.783-1.76 1.75zm-12.28 0c0 .966.787 1.749 1.759 1.749.972 0 1.76-.783 1.76-1.749 0-.967-.788-1.75-1.76-1.75s-1.76.783-1.76 1.75zm-12.29 0c0 .966.788 1.749 1.76 1.749.971 0 1.76-.783 1.76-1.749 0-.967-.789-1.75-1.76-1.75-.972 0-1.76.783-1.76 1.75zm-12.28 0c0 .966.788 1.749 1.76 1.749.971 0 1.76-.783 1.76-1.749 0-.967-.789-1.75-1.76-1.75-.972 0-1.76.783-1.76 1.75zm73.708-12.22c0 .966.788 1.749 1.76 1.749.971 0 1.759-.783 1.759-1.749 0-.966-.788-1.75-1.76-1.75-.971 0-1.759.784-1.759 1.75zm-12.29 0c0 .966.788 1.749 1.76 1.749s1.76-.783 1.76-1.749c0-.966-.788-1.75-1.76-1.75s-1.76.784-1.76 1.75zm-12.28 0c0 .966.788 1.749 1.76 1.749s1.76-.783 1.76-1.749c0-.966-.788-1.75-1.76-1.75-.971 0-1.76.784-1.76 1.75zm-12.288 0c0 .966.787 1.749 1.759 1.749.971 0 1.76-.783 1.76-1.749 0-.966-.789-1.75-1.76-1.75-.972 0-1.76.784-1.76 1.75zm-12.28 0c0 .966.787 1.749 1.759 1.749.972 0 1.76-.783 1.76-1.749 0-.966-.788-1.75-1.76-1.75s-1.76.784-1.76 1.75zm-12.29 0c0 .966.788 1.749 1.76 1.749.971 0 1.76-.783 1.76-1.749 0-.966-.789-1.75-1.76-1.75-.972 0-1.76.784-1.76 1.75zm-12.28 0c0 .966.788 1.749 1.76 1.749.971 0 1.76-.783 1.76-1.749 0-.966-.789-1.75-1.76-1.75-.972 0-1.76.784-1.76 1.75zM74.35 559.82c0 .966.788 1.749 1.76 1.749.971 0 1.759-.783 1.759-1.749 0-.966-.788-1.75-1.76-1.75-.971 0-1.759.784-1.759 1.75zm-12.29 0c0 .966.788 1.749 1.76 1.749s1.76-.783 1.76-1.749c0-.966-.788-1.75-1.76-1.75s-1.76.784-1.76 1.75zm-12.28 0c0 .966.788 1.749 1.76 1.749s1.76-.783 1.76-1.749c0-.966-.788-1.75-1.76-1.75-.971 0-1.76.784-1.76 1.75zm-12.288 0c0 .966.787 1.749 1.759 1.749.971 0 1.76-.783 1.76-1.749 0-.966-.789-1.75-1.76-1.75-.972 0-1.76.784-1.76 1.75zm-12.28 0c0 .966.787 1.749 1.759 1.749.972 0 1.76-.783 1.76-1.749 0-.966-.788-1.75-1.76-1.75s-1.76.784-1.76 1.75zm-12.29 0c0 .966.788 1.749 1.76 1.749.971 0 1.76-.783 1.76-1.749 0-.966-.789-1.75-1.76-1.75-.972 0-1.76.784-1.76 1.75zm-12.28 0c0 .966.788 1.749 1.76 1.749.971 0 1.76-.783 1.76-1.749 0-.966-.789-1.75-1.76-1.75-.972 0-1.76.784-1.76 1.75zm73.707-12.219c0 .966.788 1.749 1.76 1.749.971 0 1.759-.783 1.759-1.749 0-.967-.788-1.75-1.76-1.75-.971 0-1.759.783-1.759 1.75zM62.06 547.6c0 .966.788 1.75 1.76 1.75s1.76-.784 1.76-1.75-.788-1.749-1.76-1.749-1.76.783-1.76 1.749zm-12.28 0c0 .966.788 1.75 1.76 1.75s1.76-.784 1.76-1.75-.788-1.749-1.76-1.749c-.971 0-1.76.783-1.76 1.749zm-12.288 0c0 .966.787 1.75 1.759 1.75.971 0 1.76-.784 1.76-1.75s-.789-1.749-1.76-1.749c-.972 0-1.76.783-1.76 1.749zm-12.28 0c0 .966.787 1.75 1.759 1.75.972 0 1.76-.784 1.76-1.75s-.788-1.749-1.76-1.749-1.76.783-1.76 1.749zm-12.29 0c0 .966.788 1.75 1.76 1.75.971 0 1.76-.784 1.76-1.75s-.789-1.749-1.76-1.749c-.972 0-1.76.783-1.76 1.749zm-12.28 0c0 .966.788 1.75 1.76 1.75.971 0 1.76-.784 1.76-1.75s-.789-1.749-1.76-1.749c-.972 0-1.76.783-1.76 1.749z" fill="#9871F5"/>
</svg>
