<svg width="259" height="206" fill="none" xmlns="http://www.w3.org/2000/svg">
  <path d="M239.631 197.361l-5.659 5.605" stroke="#24EF7F" stroke-width="3" stroke-miterlimit="10" stroke-linecap="round" stroke-linejoin="round"/>
  <path d="M239.631 202.966l-5.659-5.605M9.002 119.208H1m4.002 3.973v-7.934m166-93.285H163m4.002 3.973V18m76.861-7.367c-2.68 0-4.863-2.153-4.863-4.816C239 3.162 241.174 1 243.863 1c2.68 0 4.863 2.153 4.863 4.817-.009 2.663-2.183 4.816-4.863 4.816zM43.62 205c-2.68 0-4.862-2.153-4.862-4.816 0-2.654 2.173-4.817 4.862-4.817 2.68 0 4.864 2.153 4.864 4.817-.01 2.663-2.184 4.816-4.864 4.816z" stroke="#24EF7F" stroke-width="2" stroke-miterlimit="10" stroke-linecap="round" stroke-linejoin="round"/>
  <path d="M49.947 3.897c0 .964.789 1.745 1.761 1.745.973 0 1.762-.781 1.762-1.745 0-.963-.789-1.744-1.761-1.744-.973 0-1.762.781-1.762 1.744zm0 12.174c0 .964.789 1.745 1.761 1.745.973 0 1.762-.781 1.762-1.745 0-.963-.789-1.744-1.761-1.744-.973 0-1.762.78-1.762 1.744zm0 12.185c0 .964.789 1.745 1.761 1.745.973 0 1.762-.781 1.762-1.745 0-.963-.789-1.744-1.761-1.744-.973 0-1.762.781-1.762 1.744zm0 12.175c0 .964.789 1.745 1.761 1.745.973 0 1.762-.781 1.762-1.745 0-.963-.789-1.744-1.761-1.744-.973 0-1.762.78-1.762 1.744zm0 12.184c0 .964.789 1.745 1.761 1.745.973 0 1.762-.781 1.762-1.745 0-.963-.789-1.744-1.761-1.744-.973 0-1.762.78-1.762 1.744zM37.654 3.897c0 .964.788 1.745 1.76 1.745.974 0 1.762-.781 1.762-1.745 0-.963-.788-1.744-1.761-1.744-.973 0-1.761.78-1.761 1.744zm0 12.175c0 .963.788 1.744 1.76 1.744.974 0 1.762-.78 1.762-1.744s-.788-1.745-1.761-1.745c-.973 0-1.761.781-1.761 1.745zm0 12.184c0 .964.788 1.745 1.76 1.745.974 0 1.762-.781 1.762-1.745 0-.963-.788-1.744-1.761-1.744-.973 0-1.761.78-1.761 1.744zm0 12.175c0 .964.788 1.745 1.76 1.745.974 0 1.762-.782 1.762-1.745 0-.963-.788-1.744-1.761-1.744-.973 0-1.761.78-1.761 1.744zm0 12.184c0 .963.788 1.744 1.76 1.744.974 0 1.762-.78 1.762-1.744 0-.963-.788-1.744-1.761-1.744-.973 0-1.761.78-1.761 1.744zM25.351 3.897c0 .964.789 1.745 1.761 1.745.973 0 1.762-.781 1.762-1.745 0-.963-.79-1.744-1.762-1.744s-1.761.78-1.761 1.744zm0 12.175c0 .963.789 1.744 1.761 1.744.973 0 1.762-.78 1.762-1.744s-.79-1.745-1.762-1.745-1.761.781-1.761 1.745zm0 12.184c0 .964.789 1.745 1.761 1.745.973 0 1.762-.781 1.762-1.745 0-.963-.79-1.744-1.762-1.744s-1.761.78-1.761 1.744zm0 12.175c0 .964.789 1.745 1.761 1.745.973 0 1.762-.782 1.762-1.745 0-.963-.79-1.744-1.762-1.744s-1.761.78-1.761 1.744zm0 12.184c0 .963.789 1.744 1.761 1.744.973 0 1.762-.78 1.762-1.744 0-.963-.79-1.744-1.762-1.744s-1.761.78-1.761 1.744zM13.058 3.897c0 .964.788 1.745 1.76 1.745.974 0 1.762-.781 1.762-1.745 0-.963-.788-1.744-1.761-1.744-.973 0-1.761.78-1.761 1.744zm0 12.175c0 .963.788 1.744 1.76 1.744.974 0 1.762-.78 1.762-1.744s-.788-1.745-1.761-1.745c-.973 0-1.761.781-1.761 1.745zm0 12.184c0 .964.788 1.745 1.76 1.745.974 0 1.762-.781 1.762-1.745 0-.963-.788-1.744-1.761-1.744-.973 0-1.761.78-1.761 1.744zm0 12.175c0 .964.788 1.745 1.76 1.745.974 0 1.762-.782 1.762-1.745 0-.963-.788-1.744-1.761-1.744-.973 0-1.761.78-1.761 1.744zm0 12.184c0 .963.788 1.744 1.76 1.744.974 0 1.762-.78 1.762-1.744 0-.963-.788-1.744-1.761-1.744-.973 0-1.761.78-1.761 1.744zm242.419 54.088c0 .964.789 1.745 1.762 1.745.972 0 1.761-.781 1.761-1.745 0-.963-.789-1.744-1.761-1.744-.973 0-1.762.781-1.762 1.744zm.001 12.175c0 .963.788 1.744 1.761 1.744.972 0 1.761-.781 1.761-1.744s-.789-1.744-1.761-1.744c-.973 0-1.761.781-1.761 1.744zm0 12.184c0 .963.788 1.744 1.761 1.744.972 0 1.761-.781 1.761-1.744s-.789-1.744-1.761-1.744c-.973 0-1.761.781-1.761 1.744zm-12.303-24.359c0 .963.788 1.744 1.761 1.744.973 0 1.761-.781 1.761-1.744s-.788-1.744-1.761-1.744c-.973 0-1.761.781-1.761 1.744zm0 12.175c0 .963.788 1.744 1.761 1.744.973 0 1.761-.781 1.761-1.744 0-.964-.788-1.745-1.761-1.745-.973 0-1.761.781-1.761 1.745zm0 12.184c0 .964.788 1.745 1.761 1.745.973 0 1.761-.781 1.761-1.745 0-.963-.788-1.744-1.761-1.744-.973 0-1.761.781-1.761 1.744z" fill="#24EF7F"/>
</svg>
