<svg width="269" height="240" fill="none" xmlns="http://www.w3.org/2000/svg">
  <path d="M268 150l-5.652 5.621m5.652 0L262.348 150m-252.561.619H1.794m3.997 3.984v-7.958M190.205 23.661c-2.676 0-4.857-2.16-4.857-4.83 0-2.662 2.171-4.831 4.857-4.831 2.677 0 4.858 2.16 4.858 4.83a4.852 4.852 0 01-4.858 4.831zm-95 215c-2.677 0-4.857-2.159-4.857-4.83 0-2.662 2.171-4.831 4.857-4.831 2.677 0 4.858 2.159 4.858 4.831a4.851 4.851 0 01-4.858 4.83z" stroke="#04D361" stroke-width="2" stroke-miterlimit="10" stroke-linecap="round" stroke-linejoin="round"/>
  <path d="M55.389 1.75c0 .966.787 1.75 1.76 1.75.97 0 1.758-.784 1.758-1.75S58.12 0 57.148 0c-.972 0-1.76.784-1.76 1.75zm0 12.22c0 .967.787 1.75 1.76 1.75.97 0 1.758-.783 1.758-1.75 0-.966-.787-1.75-1.759-1.75-.972 0-1.76.784-1.76 1.75zm0 12.21c0 .966.787 1.75 1.76 1.75.97 0 1.758-.784 1.758-1.75s-.787-1.75-1.759-1.75c-.972 0-1.76.784-1.76 1.75zm0 12.22c0 .966.787 1.75 1.76 1.75.97 0 1.758-.784 1.758-1.75s-.787-1.75-1.759-1.75c-.972 0-1.76.784-1.76 1.75zm0 12.21c0 .967.787 1.75 1.76 1.75.97 0 1.758-.783 1.758-1.75 0-.965-.787-1.749-1.759-1.749-.972 0-1.76.784-1.76 1.75zM43.109 1.75c0 .966.788 1.749 1.76 1.749.97 0 1.758-.783 1.758-1.75C46.627.784 45.84 0 44.868 0c-.971 0-1.76.783-1.76 1.75zm0 12.22c0 .966.788 1.75 1.76 1.75.97 0 1.758-.784 1.758-1.75s-.787-1.75-1.759-1.75c-.971 0-1.76.784-1.76 1.75zm0 12.21c0 .966.788 1.75 1.76 1.75.97 0 1.758-.784 1.758-1.75s-.787-1.75-1.759-1.75c-.971 0-1.76.784-1.76 1.75zm0 12.22c0 .967.788 1.75 1.76 1.75.97 0 1.758-.783 1.758-1.75 0-.966-.787-1.75-1.759-1.75-.971 0-1.76.784-1.76 1.75zm0 12.21c0 .967.788 1.75 1.76 1.75.97 0 1.758-.783 1.758-1.75 0-.965-.787-1.749-1.759-1.749-.971 0-1.76.784-1.76 1.75zM30.82 1.75c0 .966.787 1.749 1.759 1.749.971 0 1.76-.783 1.76-1.75C34.338.784 33.55 0 32.578 0s-1.76.783-1.76 1.75zm0 12.22c0 .966.787 1.75 1.759 1.75.971 0 1.76-.784 1.76-1.75s-.788-1.75-1.76-1.75-1.76.784-1.76 1.75zm0 12.21c0 .966.787 1.75 1.759 1.75.971 0 1.76-.784 1.76-1.75s-.788-1.75-1.76-1.75-1.76.784-1.76 1.75zm0 12.22c0 .967.787 1.75 1.759 1.75.971 0 1.76-.783 1.76-1.75 0-.966-.788-1.75-1.76-1.75s-1.76.784-1.76 1.75zm0 12.21c0 .967.787 1.75 1.759 1.75.971 0 1.76-.783 1.76-1.75 0-.965-.788-1.749-1.76-1.749s-1.76.784-1.76 1.75zM18.54 1.75c0 .966.787 1.749 1.76 1.749.97 0 1.758-.783 1.758-1.75C22.058.784 21.271 0 20.3 0c-.972 0-1.76.783-1.76 1.75zm0 12.22c0 .966.787 1.75 1.76 1.75.97 0 1.758-.784 1.758-1.75s-.787-1.75-1.759-1.75c-.971 0-1.76.784-1.76 1.75zm0 12.21c0 .966.787 1.75 1.76 1.75.97 0 1.758-.784 1.758-1.75s-.787-1.75-1.759-1.75c-.971 0-1.76.784-1.76 1.75zm0 12.22c0 .967.787 1.75 1.76 1.75.97 0 1.758-.783 1.758-1.75 0-.966-.787-1.75-1.759-1.75-.971 0-1.76.784-1.76 1.75zm0 12.21c0 .967.788 1.75 1.76 1.75.97 0 1.758-.783 1.758-1.75 0-.965-.787-1.749-1.759-1.749-.971 0-1.76.784-1.76 1.75zm231.289 158.14c0 .966.788 1.749 1.759 1.749.972 0 1.76-.783 1.76-1.749 0-.967-.788-1.75-1.76-1.75-.971 0-1.759.783-1.759 1.75zm0 12.21c0 .966.788 1.749 1.759 1.749.972 0 1.76-.783 1.76-1.749 0-.966-.788-1.75-1.76-1.75-.971 0-1.759.784-1.759 1.75zm0 12.22c0 .966.788 1.749 1.759 1.749.972 0 1.76-.783 1.76-1.749 0-.967-.788-1.75-1.76-1.75-.971 0-1.759.783-1.759 1.75zm-12.289-24.43c0 .966.788 1.749 1.759 1.749.972 0 1.759-.783 1.759-1.749 0-.967-.787-1.75-1.759-1.75-.971 0-1.759.783-1.759 1.75zm0 12.21c0 .966.787 1.749 1.759 1.749.972 0 1.759-.783 1.759-1.749 0-.966-.787-1.75-1.759-1.75-.972 0-1.759.784-1.759 1.75zm0 12.22c0 .966.787 1.75 1.759 1.75.972 0 1.759-.784 1.759-1.75s-.787-1.749-1.759-1.749c-.972 0-1.759.783-1.759 1.749z" fill="#9871F5"/>
</svg>
