<svg width="250" height="236" fill="none" xmlns="http://www.w3.org/2000/svg">
  <path fill-rule="evenodd" clip-rule="evenodd" d="M8.253 113.721a1 1 0 10-1.412-1.416l-2.112 2.106-2.112-2.106a1 1 0 00-1.412 1.416l2.108 2.102-2.108 2.103a1 1 0 101.412 1.416l2.112-2.106 2.112 2.106a1 1 0 001.412-1.416l-2.108-2.103 2.108-2.102z" fill="#9871F5"/>
  <path d="M244.156 112.674c-2.669 0-4.843-2.159-4.843-4.831a4.839 4.839 0 014.843-4.831c2.669 0 4.844 2.16 4.844 4.831a4.845 4.845 0 01-4.844 4.831zM45.844 29.665c-2.67 0-4.844-2.16-4.844-4.831a4.84 4.84 0 014.844-4.832 4.839 4.839 0 014.843 4.832 4.845 4.845 0 01-4.843 4.83zM81.652 229L76 234.621m5.652 0L76 229m149.573-5.289c-2.958 0-5.357-2.392-5.357-5.343s2.399-5.343 5.357-5.343c2.959 0 5.357 2.392 5.357 5.343 0 2.941-2.398 5.343-5.357 5.343zm-3.695-1.481l-3.789 3.769" stroke="#9871F5" stroke-width="2" stroke-miterlimit="10" stroke-linecap="round" stroke-linejoin="round"/>
  <path d="M16.245 194.772c0 .967.785 1.75 1.754 1.75s1.754-.783 1.754-1.75c0-.966-.785-1.749-1.754-1.749s-1.754.783-1.754 1.749zm0 12.213c0 .967.786 1.75 1.755 1.75.968 0 1.754-.783 1.754-1.75 0-.966-.786-1.749-1.755-1.749-.968 0-1.754.783-1.754 1.749zm0 12.22c0 .966.786 1.75 1.755 1.75.968 0 1.754-.784 1.754-1.75s-.786-1.749-1.755-1.749c-.968 0-1.754.783-1.754 1.749zM3.991 194.772c0 .966.786 1.749 1.755 1.749.968 0 1.754-.783 1.754-1.749 0-.966-.786-1.75-1.754-1.75-.97 0-1.755.784-1.755 1.75zm0 12.213c0 .967.786 1.75 1.755 1.75.968 0 1.754-.783 1.754-1.75 0-.966-.786-1.749-1.754-1.749-.97 0-1.755.783-1.755 1.749zm0 12.22c0 .966.786 1.75 1.755 1.75.968 0 1.754-.784 1.754-1.75s-.786-1.749-1.754-1.749c-.97 0-1.755.783-1.755 1.749zM213.096 38.404c0 .966.785 1.75 1.754 1.75s1.754-.784 1.754-1.75c0-.967-.785-1.75-1.754-1.75s-1.754.783-1.754 1.75zm-12.254 0c0 .967.785 1.75 1.754 1.75s1.754-.783 1.754-1.75c0-.966-.785-1.75-1.754-1.75s-1.754.784-1.754 1.75zm-12.245 0c0 .967.786 1.75 1.755 1.75.968 0 1.754-.783 1.754-1.75 0-.966-.786-1.75-1.754-1.75-.969 0-1.755.784-1.755 1.75zm-12.254 0c0 .967.786 1.75 1.755 1.75.968 0 1.754-.783 1.754-1.75 0-.966-.786-1.75-1.754-1.75-.969 0-1.755.784-1.755 1.75zm-12.244 0c0 .967.785 1.75 1.754 1.75s1.754-.783 1.754-1.75c0-.966-.785-1.75-1.754-1.75s-1.754.784-1.754 1.75zm-12.254 0c0 .967.785 1.75 1.754 1.75s1.755-.783 1.755-1.75c0-.966-.786-1.75-1.755-1.75-.969 0-1.754.784-1.754 1.75zm-12.245 0c0 .967.786 1.75 1.755 1.75.968 0 1.754-.783 1.754-1.75 0-.966-.786-1.75-1.754-1.75-.969 0-1.755.784-1.755 1.75zm73.496-12.221c0 .966.785 1.75 1.754 1.75s1.754-.784 1.754-1.75-.785-1.75-1.754-1.75-1.754.784-1.754 1.75zm-12.254 0c0 .966.785 1.75 1.754 1.75s1.754-.784 1.754-1.75-.785-1.75-1.754-1.75-1.754.784-1.754 1.75zm-12.245 0c0 .966.786 1.75 1.755 1.75.968 0 1.754-.784 1.754-1.75s-.786-1.75-1.754-1.75c-.969 0-1.755.784-1.755 1.75zm-12.254 0c0 .966.786 1.75 1.755 1.75.968 0 1.754-.784 1.754-1.75s-.786-1.75-1.754-1.75c-.969 0-1.755.784-1.755 1.75zm-12.244 0c0 .966.785 1.75 1.754 1.75s1.754-.784 1.754-1.75-.785-1.75-1.754-1.75-1.754.784-1.754 1.75zm-12.254 0c0 .966.785 1.75 1.754 1.75s1.755-.784 1.755-1.75-.786-1.75-1.755-1.75c-.969 0-1.754.784-1.754 1.75zm-12.245 0c0 .966.786 1.75 1.755 1.75.968 0 1.754-.784 1.754-1.75s-.786-1.75-1.754-1.75c-.969 0-1.755.784-1.755 1.75zm73.496-12.213c0 .967.785 1.75 1.754 1.75s1.754-.783 1.754-1.75c0-.966-.785-1.749-1.754-1.749s-1.754.784-1.754 1.75zm-12.254 0c0 .967.785 1.75 1.754 1.75s1.754-.783 1.754-1.75c0-.966-.785-1.749-1.754-1.749s-1.754.784-1.754 1.75zm-12.245 0c0 .967.786 1.75 1.755 1.75.968 0 1.754-.783 1.754-1.75 0-.966-.786-1.749-1.754-1.749-.969 0-1.755.784-1.755 1.75zm-12.254 0c0 .967.786 1.75 1.755 1.75.968 0 1.754-.783 1.754-1.75 0-.966-.786-1.749-1.754-1.749-.969 0-1.755.784-1.755 1.75zm-12.244 0c0 .967.785 1.75 1.754 1.75s1.754-.783 1.754-1.75c0-.966-.785-1.749-1.754-1.749s-1.754.784-1.754 1.75zm-12.254 0c0 .967.785 1.75 1.754 1.75s1.755-.783 1.755-1.75c0-.966-.786-1.749-1.755-1.749-.969 0-1.754.784-1.754 1.75zm-12.245 0c0 .967.786 1.75 1.755 1.75.968 0 1.754-.783 1.754-1.75 0-.966-.786-1.749-1.754-1.749-.969 0-1.755.784-1.755 1.75zm73.495-12.22c0 .966.785 1.75 1.754 1.75s1.754-.784 1.754-1.75S215.818 0 214.849 0s-1.754.784-1.754 1.75zm-12.253 0c0 .966.785 1.749 1.754 1.749s1.754-.783 1.754-1.75c0-.966-.785-1.749-1.754-1.749s-1.754.783-1.754 1.75zm-12.245 0c0 .966.786 1.749 1.755 1.749.968 0 1.754-.783 1.754-1.75 0-.966-.786-1.749-1.754-1.749-.969 0-1.755.783-1.755 1.75zm-12.254 0c0 .966.786 1.749 1.755 1.749.968 0 1.754-.783 1.754-1.75 0-.966-.786-1.749-1.754-1.749-.969 0-1.755.783-1.755 1.75zm-12.244 0c0 .966.785 1.749 1.754 1.749s1.754-.783 1.754-1.75c0-.966-.785-1.749-1.754-1.749s-1.754.783-1.754 1.75zm-12.254 0c0 .966.785 1.749 1.754 1.749s1.755-.783 1.755-1.75c0-.966-.786-1.749-1.755-1.749-.969 0-1.754.783-1.754 1.75zm-12.245 0c0 .966.786 1.749 1.755 1.749.968 0 1.754-.783 1.754-1.75 0-.966-.786-1.749-1.754-1.749-.969 0-1.755.783-1.755 1.75z" fill="#9871F5"/>
</svg>
